<svg xmlns="http://www.w3.org/2000/svg" width="192" height="192" viewBox="0 0 192 192" role="img" aria-label="Cashflow City app icon">
  <rect width="192" height="192" rx="42" fill="#e9f8ec"/>
  <path d="M22 130c20-23 44-34 72-34s54 11 76 34v28H22z" fill="#79c987"/>
  <path d="M28 120h136v30H28z" fill="#5b6c75"/>
  <path d="M36 134h28m24 0h28m24 0h20" stroke="#fff5bf" stroke-width="6" stroke-linecap="round"/>
  <rect x="34" y="70" width="40" height="48" rx="8" fill="#ffe796"/>
  <path d="M30 70h48L54 48z" fill="#d8a21f"/>
  <rect x="85" y="48" width="48" height="70" rx="10" fill="#79c8f2"/>
  <path d="M82 48h54l-27-22z" fill="#2d8bc0"/>
  <rect x="144" y="82" width="28" height="36" rx="7" fill="#ffb36f"/>
  <path d="M140 82h36l-18-18z" fill="#ef8e45"/>
  <circle cx="96" cy="96" r="36" fill="#ffd86b" stroke="#b98014" stroke-width="8"/>
  <text x="96" y="110" text-anchor="middle" font-family="system-ui, sans-serif" font-size="50" font-weight="900" fill="#64470e">¥</text>
</svg>
