<svg xmlns="http://www.w3.org/2000/svg" width="512" height="512" viewBox="0 0 512 512" role="img" aria-label="Cashflow City app icon">
  <rect width="512" height="512" rx="112" fill="#e9f8ec"/>
  <circle cx="98" cy="92" r="46" fill="#fff7cc"/>
  <path d="M54 342c55-63 119-92 194-92s145 31 210 92v78H54z" fill="#79c987"/>
  <path d="M76 316h360v82H76z" fill="#5b6c75"/>
  <path d="M104 352h76m66 0h76m66 0h44" stroke="#fff5bf" stroke-width="16" stroke-linecap="round"/>
  <rect x="86" y="178" width="106" height="126" rx="20" fill="#ffe796"/>
  <path d="M72 178h134L139 118z" fill="#d8a21f"/>
  <rect x="226" y="116" width="126" height="188" rx="24" fill="#79c8f2"/>
  <path d="M216 116h146l-73-64z" fill="#2d8bc0"/>
  <rect x="384" y="210" width="76" height="94" rx="18" fill="#ffb36f"/>
  <path d="M372 210h100l-50-48z" fill="#ef8e45"/>
  <g fill="#ffffff" opacity="0.75">
    <rect x="118" y="210" width="20" height="20" rx="5"/>
    <rect x="154" y="210" width="20" height="20" rx="5"/>
    <rect x="262" y="158" width="24" height="24" rx="6"/>
    <rect x="310" y="158" width="24" height="24" rx="6"/>
    <rect x="262" y="210" width="24" height="24" rx="6"/>
    <rect x="310" y="210" width="24" height="24" rx="6"/>
  </g>
  <circle cx="256" cy="268" r="96" fill="#ffd86b" stroke="#b98014" stroke-width="22"/>
  <text x="256" y="306" text-anchor="middle" font-family="system-ui, sans-serif" font-size="136" font-weight="900" fill="#64470e">¥</text>
</svg>
